# xmcd CD database file
#
# Track frame offsets:
#	150
#	26000
#	52000
#	76082
#	107951
#	132403
#	166836
#	190368
#	221583
#	244364
#
# Disc length: 3593 seconds
#
# Revision: 0
# Processed by: cddbd v1.5.2PL0 Copyright (c) Steve Scherf et al.
# Submitted via: CDex 1.70beta2
#
DISCID=8d0e070a
DTITLE=Andy Martin and Vic Lewis - The Project
DYEAR=2004
DGENRE=Jazz
TTITLE0=I'll Be Around
TTITLE1=Love Dance
TTITLE2=Wait Till You See Her
TTITLE3=Paz Y Jazz
TTITLE4=The Charm of You
TTITLE5=Everything You Is
TTITLE6=It Never Entered My Mind
TTITLE7=Kubis Shuffle
TTITLE8=The Ballad of the Sad Young Men
TTITLE9=So Close And Yet So Far
EXTD=YEAR: 2004
EXTT0=
EXTT1=
EXTT2=
EXTT3=
EXTT4=
EXTT5=
EXTT6=
EXTT7=
EXTT8=
EXTT9=
PLAYORDER=
